#!OML:ASF E:\Steps\Project 1\Capture day 1\Session 2\Subject.ASF
:FULLY-SPECIFIED
:DEGREES
208
root 7.87297 16.0708 29.3145 -154.395 2.52452 176.719
lowerback -24.8569 -0.235601 -6.09835
upperback 0.835912 1.93704 -1.24874
thorax 14.8652 0.559282 2.79978
lowerneck -3.27408 -1.01993 -1.62191
upperneck 18.9879 -2.73144 1.53197
head 6.33183 -1.77351 0.533933
rclavicle -2.55935e-015 1.97791e-014
rhumerus -28.0199 -6.81799 -86.3349
rradius 38.4695
rwrist -2.53913
rhand -7.10501 -57.2031
rfingers 7.12502
rthumb 18.7698 -86.3175
lclavicle -2.55935e-015 1.97791e-014
lhumerus -32.2365 11.4582 77.4317
lradius 19.8599
lwrist -7.92736
lhand -20.1985 -14.0329
lfingers 7.12502
lthumb 6.14816 15.8579
rfemur -16.2261 8.07891 20.9223
rtibia 8.44317
rfoot -26.364 -5.38964
rtoes -34.6528
lfemur -50.4289 -7.28532 -19.2442
ltibia 23.5875
lfoot -4.66272 4.61391
ltoes -33.7813
209
root 7.87093 16.0607 29.2406 -154.432 2.70615 176.593
lowerback -24.866 -0.140208 -6.27643
upperback 0.870002 2.139 -1.36427
thorax 14.8934 0.64141 2.84211
lowerneck -3.26605 -1.0524 -1.60183
upperneck 18.8673 -2.75531 1.52728
head 6.29224 -1.77712 0.529087
rclavicle 5.46658e-016 4.13472e-014
rhumerus -27.8788 -6.65555 -86.551
rradius 38.8073
rwrist -2.40862
rhand -6.99365 -57.6803
rfingers 7.12502
rthumb 18.8769 -86.7843
lclavicle 5.46658e-016 4.13472e-014
lhumerus -32.1991 11.6567 77.1435
lradius 19.6813
lwrist -8.2283
lhand -20.1374 -14.3865
lfingers 7.12502
lthumb 6.20719 15.5025
rfemur -15.8755 8.37519 20.7078
rtibia 8.45643
rfoot -26.683 -5.46145
rtoes -34.4472
lfemur -50.1692 -7.3236 -19.4187
ltibia 22.9582
lfoot -4.50386 4.58545
ltoes -34.774
210
root 7.87226 16.049 29.1652 -154.454 2.93548 176.701
lowerback -24.8231 0.00740653 -6.27157
upperback 0.853979 2.33815 -1.42224
thorax 14.8341 0.737145 2.8435
lowerneck -3.3747 -0.99598 -1.56737
upperneck 18.853 -2.64837 1.44571
head 6.30332 -1.72292 0.503749
rclavicle -1.88845e-015 -3.926e-014
rhumerus -27.665 -6.61567 -86.7416
rradius 38.7931
rwrist -1.98883
rhand -6.18189 -59.1592
rfingers 7.12502
rthumb 19.6575 -88.1853
lclavicle -1.88845e-015 -3.926e-014
lhumerus -32.3038 11.6848 76.8512
lradius 19.6336
lwrist -8.41008
lhand -20.0566 -14.5838
lfingers 7.12502
lthumb 6.28518 15.3029
rfemur -15.6164 8.57156 20.798
rtibia 8.60993
rfoot -27.0993 -5.08745
rtoes -33.6512
lfemur -49.9101 -7.08048 -19.4163
ltibia 22.4883
lfoot -4.43392 4.23626
ltoes -35.2075
211
root 7.86923 16.0387 29.0864 -154.469 3.12606 176.691
lowerback -24.8256 0.0968504 -6.25766
upperback 0.817818 2.47555 -1.53851
thorax 14.7865 0.811671 2.75143
lowerneck -3.28588 -0.89903 -1.54586
upperneck 18.7293 -2.48449 1.34812
head 6.24439 -1.64577 0.481888
rclavicle 9.19379e-015 -2.18663e-014
rhumerus -27.6076 -6.32662 -86.9803
rradius 38.7367
rwrist -2.23702
rhand -6.30194 -55.7508
rfingers 7.12502
rthumb 19.5421 -84.7886
lclavicle 9.19379e-015 -2.18663e-014
lhumerus -32.388 11.6342 76.5616
lradius 19.5518
lwrist -8.45486
lhand -20.1355 -14.3446
lfingers 7.12502
lthumb 6.20896 15.5444
rfemur -15.3777 8.76726 20.7399
rtibia 8.7641
rfoot -27.4125 -4.96552
rtoes -33.3008
lfemur -49.5994 -7.05858 -19.4913
ltibia 22.0191
lfoot -4.34203 4.0254
ltoes -34.513
212
root 7.86329 16.0305 29.0049 -154.526 3.25424 176.507
lowerback -24.9215 0.136946 -6.37809
upperback 0.891583 2.60542 -1.69893
thorax 14.9236 0.863948 2.68538
lowerneck -3.0471 -0.909593 -1.52637
upperneck 18.3259 -2.45709 1.33499
head 6.07439 -1.62062 0.482342
rclavicle 2.23633e-015 -4.96962e-015
rhumerus -27.5761 -5.98176 -87.211
rradius 38.9865
rwrist -2.77887
rhand -6.89121 -58.1302
rfingers 7.12502
rthumb 18.9754 -87.2246
lclavicle 2.23633e-015 -4.96962e-015
lhumerus -32.2517 11.651 76.3648
lradius 19.3889
lwrist -8.48752
lhand -20.3435 -13.8898
lfingers 7.12502
lthumb 6.00819 16.005
rfemur -14.9484 8.52161 20.5044
rtibia 8.67387
rfoot -27.5676 -4.79708
rtoes -33.4879
lfemur -49.2006 -7.30592 -19.6894
ltibia 21.5601
lfoot -4.16255 4.06712
ltoes -34.1023
213
root 7.86049 16.0185 28.923 -154.531 3.44189 176.405
lowerback -24.9644 0.197973 -6.54699
upperback 0.921495 2.76217 -1.80186
thorax 14.9701 0.925623 2.72145
lowerneck -3.13423 -1.0907 -1.51324
upperneck 18.1804 -2.6881 1.39314
head 6.04792 -1.71727 0.485047
rclavicle -9.34288e-015 -3.00165e-014
rhumerus -27.5793 -5.76345 -87.3473
rradius 39.3769
rwrist -2.95984
rhand -6.75669 -58.8668
rfingers 7.12502
rthumb 19.1048 -87.9485
lclavicle -9.34288e-015 -3.00165e-014
lhumerus -32.1958 11.737 76.197
lradius 19.259
lwrist -8.58462
lhand -20.5198 -13.8396
lfingers 7.12502
lthumb 5.83803 16.06
rfemur -14.7232 8.4394 20.348
rtibia 8.85416
rfoot -27.7903 -4.58415
rtoes -33.175
lfemur -48.8986 -7.37866 -19.8351
ltibia 21.2983
lfoot -4.26685 4.16487
ltoes -33.9675
214
root 7.85885 16.0122 28.838 -154.636 3.62259 176.352
lowerback -24.7578 0.272042 -6.69862
upperback 0.866393 2.9035 -1.89231
thorax 14.7721 0.994256 2.74817
lowerneck -3.34798 -0.858114 -1.3331
upperneck 18.4171 -2.33718 1.06899
head 6.14864 -1.5605 0.370459
rclavicle -3.77691e-015 1.70955e-014
rhumerus -27.6303 -5.73675 -87.3972
rradius 39.359
rwrist -2.87385
rhand -6.65005 -57.0402
rfingers 7.12502
rthumb 19.2074 -86.1117
lclavicle -3.77691e-015 1.70955e-014
lhumerus -32.3079 11.8805 75.8761
lradius 19.1177
lwrist -8.65044
lhand -20.5138 -14.0997
lfingers 7.12502
lthumb 5.84379 15.7997
rfemur -14.4014 8.40394 20.2505
rtibia 9.04545
rfoot -27.961 -4.29676
rtoes -32.3715
lfemur -48.4139 -7.3617 -20.0028
ltibia 21.0644
lfoot -4.59379 4.21374
ltoes -32.8999
